<svg viewBox="0 0 1200 1200">
    <circle style="fill:#e1e1e1;" cx="600" cy="600" r="600" />
    <circle style="fill:#292929;" cx="600" cy="600" r="590" />
    <polygon style="fill:#e1e1e1;" points="595,40 600,20 605,40 600,60" transform="rotate(0   600 600)" />
    <polygon style="fill:#e1e1e1;" points="595,40 600,20 605,40 600,60" transform="rotate(30  600 600)" />
    <polygon style="fill:#e1e1e1;" points="595,40 600,20 605,40 600,60" transform="rotate(60  600 600)" />
    <polygon style="fill:#e1e1e1;" points="595,40 600,20 605,40 600,60" transform="rotate(90  600 600)" />
    <polygon style="fill:#e1e1e1;" points="595,40 600,20 605,40 600,60" transform="rotate(120 600 600)" />
    <polygon style="fill:#e1e1e1;" points="595,40 600,20 605,40 600,60" transform="rotate(150 600 600)" />
    <polygon style="fill:#e1e1e1;" points="595,40 600,20 605,40 600,60" transform="rotate(180 600 600)" />
    <polygon style="fill:#e1e1e1;" points="595,40 600,20 605,40 600,60" transform="rotate(210 600 600)" />
    <polygon style="fill:#e1e1e1;" points="595,40 600,20 605,40 600,60" transform="rotate(240 600 600)" />
    <polygon style="fill:#e1e1e1;" points="595,40 600,20 605,40 600,60" transform="rotate(270 600 600)" />
    <polygon style="fill:#e1e1e1;" points="595,40 600,20 605,40 600,60" transform="rotate(300 600 600)" />
    <polygon style="fill:#e1e1e1;" points="595,40 600,20 605,40 600,60" transform="rotate(330 600 600)" />
    <circle style="fill:#e1e1e1;" cx="600" cy="600" r="20" />
    <polygon style="fill:#e1e1e1;" points="580,600 600,240 620,600" transform="rotate(-60 600 600)" />
    <polygon style="fill:#e1e1e1;" points="580,600 600,60 620,600" transform="rotate(+60 600 600)" />
    <circle style="fill:#ff0000;" cx="600" cy="600" r="10" />
    <polygon style="fill:#ff0000;" points="590,600 600,60 610,600" transform="rotate(0 600 600)" />
</svg>
